<mxfile host="Electron" modified="2023-10-08T14:04:08.537Z" agent="Mozilla/5.0 (X11; Linux x86_64) AppleWebKit/537.36 (KHTML, like Gecko) draw.io/21.6.8 Chrome/114.0.5735.289 Electron/25.5.0 Safari/537.36" etag="lcOg4_tQ_L6hXQVHOT1H" version="21.6.8" type="device">
  <diagram name="Page-1" id="VTcgenG-z07J8Rnrmjg_">
    <mxGraphModel dx="2004" dy="1203" grid="1" gridSize="10" guides="1" tooltips="1" connect="1" arrows="1" fold="1" page="1" pageScale="1" pageWidth="850" pageHeight="1100" math="0" shadow="0">
      <root>
        <mxCell id="0" />
        <mxCell id="1" parent="0" />
        <mxCell id="4NzvP2yo4PwK-n3QsXEG-1" value="&lt;font style=&quot;font-size: 24px;&quot;&gt;vga.v&lt;/font&gt;" style="rounded=0;whiteSpace=wrap;html=1;" vertex="1" parent="1">
          <mxGeometry x="160" y="320" width="120" height="80" as="geometry" />
        </mxCell>
        <mxCell id="4NzvP2yo4PwK-n3QsXEG-5" style="edgeStyle=orthogonalEdgeStyle;rounded=0;orthogonalLoop=1;jettySize=auto;html=1;exitX=1;exitY=0.5;exitDx=0;exitDy=0;entryX=0;entryY=0.5;entryDx=0;entryDy=0;" edge="1" parent="1" source="4NzvP2yo4PwK-n3QsXEG-2" target="4NzvP2yo4PwK-n3QsXEG-3">
          <mxGeometry relative="1" as="geometry" />
        </mxCell>
        <mxCell id="4NzvP2yo4PwK-n3QsXEG-6" value="&lt;font style=&quot;font-size: 20px;&quot;&gt;verilator&lt;/font&gt;" style="edgeLabel;html=1;align=center;verticalAlign=middle;resizable=0;points=[];" vertex="1" connectable="0" parent="4NzvP2yo4PwK-n3QsXEG-5">
          <mxGeometry x="-0.0167" y="1" relative="1" as="geometry">
            <mxPoint as="offset" />
          </mxGeometry>
        </mxCell>
        <mxCell id="4NzvP2yo4PwK-n3QsXEG-2" value="&lt;font style=&quot;font-size: 24px;&quot;&gt;vga.v&lt;/font&gt;" style="rounded=0;whiteSpace=wrap;html=1;" vertex="1" parent="1">
          <mxGeometry x="160" y="320" width="120" height="80" as="geometry" />
        </mxCell>
        <mxCell id="4NzvP2yo4PwK-n3QsXEG-10" style="edgeStyle=orthogonalEdgeStyle;rounded=0;orthogonalLoop=1;jettySize=auto;html=1;exitX=1;exitY=0.5;exitDx=0;exitDy=0;entryX=0;entryY=0.25;entryDx=0;entryDy=0;" edge="1" parent="1" source="4NzvP2yo4PwK-n3QsXEG-3" target="4NzvP2yo4PwK-n3QsXEG-9">
          <mxGeometry relative="1" as="geometry" />
        </mxCell>
        <mxCell id="4NzvP2yo4PwK-n3QsXEG-3" value="&lt;span style=&quot;font-size: 24px;&quot;&gt;vag.cpp&lt;/span&gt;" style="rounded=0;whiteSpace=wrap;html=1;" vertex="1" parent="1">
          <mxGeometry x="400" y="320" width="120" height="80" as="geometry" />
        </mxCell>
        <mxCell id="4NzvP2yo4PwK-n3QsXEG-13" style="edgeStyle=orthogonalEdgeStyle;rounded=0;orthogonalLoop=1;jettySize=auto;html=1;exitX=1;exitY=0.5;exitDx=0;exitDy=0;entryX=0;entryY=0.75;entryDx=0;entryDy=0;" edge="1" parent="1" source="4NzvP2yo4PwK-n3QsXEG-4">
          <mxGeometry relative="1" as="geometry">
            <mxPoint x="640" y="489" as="targetPoint" />
          </mxGeometry>
        </mxCell>
        <mxCell id="4NzvP2yo4PwK-n3QsXEG-14" style="edgeStyle=orthogonalEdgeStyle;rounded=0;orthogonalLoop=1;jettySize=auto;html=1;exitX=0.5;exitY=0;exitDx=0;exitDy=0;entryX=0.5;entryY=1;entryDx=0;entryDy=0;" edge="1" parent="1" source="4NzvP2yo4PwK-n3QsXEG-4" target="4NzvP2yo4PwK-n3QsXEG-3">
          <mxGeometry relative="1" as="geometry" />
        </mxCell>
        <mxCell id="4NzvP2yo4PwK-n3QsXEG-15" value="&lt;font style=&quot;font-size: 20px;&quot;&gt;testbench&lt;/font&gt;" style="edgeLabel;html=1;align=center;verticalAlign=middle;resizable=0;points=[];" vertex="1" connectable="0" parent="4NzvP2yo4PwK-n3QsXEG-14">
          <mxGeometry x="-0.05" relative="1" as="geometry">
            <mxPoint as="offset" />
          </mxGeometry>
        </mxCell>
        <mxCell id="4NzvP2yo4PwK-n3QsXEG-4" value="&lt;span style=&quot;font-size: 24px;&quot;&gt;tb_vga.cpp&lt;/span&gt;" style="rounded=0;whiteSpace=wrap;html=1;" vertex="1" parent="1">
          <mxGeometry x="400" y="479" width="120" height="80" as="geometry" />
        </mxCell>
        <mxCell id="4NzvP2yo4PwK-n3QsXEG-9" value="&lt;font style=&quot;font-size: 24px;&quot;&gt;main&lt;/font&gt;" style="rounded=0;whiteSpace=wrap;html=1;" vertex="1" parent="1">
          <mxGeometry x="640" y="400" width="120" height="120" as="geometry" />
        </mxCell>
      </root>
    </mxGraphModel>
  </diagram>
</mxfile>
